<?xml version="1.0" standalone="no"?>
<!DOCTYPE svg PUBLIC "-//W3C//DTD SVG 20010904//EN"
 "http://www.w3.org/TR/2001/REC-SVG-20010904/DTD/svg10.dtd">
<svg version="1.0" xmlns="http://www.w3.org/2000/svg"
 width="860.000000pt" height="936.000000pt" viewBox="0 0 860.000000 936.000000"
 preserveAspectRatio="xMidYMid meet">

<g transform="translate(0.000000,936.000000) scale(0.100000,-0.100000)"
fill="#000000" stroke="none">
<path d="M2045 8943 c-185 -25 -374 -158 -458 -323 -70 -139 -70 -139 -74
-600 -4 -412 -4 -416 17 -443 28 -35 80 -37 110 -5 19 21 20 33 20 418 0 431
3 462 58 564 36 69 126 158 193 191 103 53 123 55 547 55 448 0 452 1 452 75
0 75 -4 75 -447 74 -213 -1 -401 -4 -418 -6z"/>
<path d="M5717 8930 c-37 -29 -37 -80 -1 -109 26 -20 37 -21 423 -21 427 0
447 -2 550 -55 110 -56 204 -173 237 -299 11 -39 14 -144 14 -447 0 -386 1
-397 21 -423 29 -36 80 -36 109 1 21 27 21 31 18 448 -4 370 -6 427 -22 475
-67 206 -220 359 -426 426 -48 16 -105 18 -475 22 -417 3 -421 3 -448 -18z"/>
<path d="M4237 8903 c18 -2 50 -2 70 0 21 2 7 4 -32 4 -38 0 -55 -2 -38 -4z"/>
<path d="M4053 8893 c9 -2 23 -2 30 0 6 3 -1 5 -18 5 -16 0 -22 -2 -12 -5z"/>
<path d="M4508 8893 c6 -2 18 -2 25 0 6 3 1 5 -13 5 -14 0 -19 -2 -12 -5z"/>
<path d="M3948 8883 c7 -3 16 -2 19 1 4 3 -2 6 -13 5 -11 0 -14 -3 -6 -6z"/>
<path d="M4608 8883 c6 -2 18 -2 25 0 6 3 1 5 -13 5 -14 0 -19 -2 -12 -5z"/>
<path d="M3960 7935 c-24 -25 -42 -45 -39 -45 3 0 25 20 49 45 24 25 42 45 39
45 -3 0 -25 -20 -49 -45z"/>
<path d="M4022 7945 c0 -16 2 -22 5 -12 2 9 2 23 0 30 -3 6 -5 -1 -5 -18z"/>
<path d="M4906 7957 c3 -10 9 -15 12 -12 3 3 0 11 -7 18 -10 9 -11 8 -5 -6z"/>
<path d="M4770 7865 c-24 -25 -42 -45 -39 -45 3 0 25 20 49 45 24 25 42 45 39
45 -3 0 -25 -20 -49 -45z"/>
<path d="M3864 7848 l-29 -33 33 29 c17 17 32 31 32 33 0 8 -8 1 -36 -29z"/>
<path d="M4699 7803 c-13 -16 -12 -17 4 -4 9 7 17 15 17 17 0 8 -8 3 -21 -13z"/>
<path d="M3799 7793 c-13 -16 -12 -17 4 -4 16 13 21 21 13 21 -2 0 -10 -8 -17
-17z"/>
<path d="M3749 7753 c-13 -16 -12 -17 4 -4 16 13 21 21 13 21 -2 0 -10 -8 -17
-17z"/>
<path d="M4575 7730 c-3 -6 1 -7 9 -4 18 7 21 14 7 14 -6 0 -13 -4 -16 -10z"/>
<path d="M4530 7710 c-8 -5 -10 -10 -5 -10 6 0 17 5 25 10 8 5 11 10 5 10 -5
0 -17 -5 -25 -10z"/>
<path d="M5080 7676 c0 -2 8 -10 18 -17 15 -13 16 -12 3 4 -13 16 -21 21 -21
13z"/>
<path d="M3590 7639 c-22 -18 -22 -19 -3 -10 12 6 25 16 28 21 9 15 3 12 -25
-11z"/>
<path d="M5125 7620 c10 -11 20 -20 23 -20 3 0 -3 9 -13 20 -10 11 -20 20 -23
20 -3 0 3 -9 13 -20z"/>
<path d="M3889 7613 c-13 -16 -12 -17 4 -4 9 7 17 15 17 17 0 8 -8 3 -21 -13z"/>
<path d="M4208 7603 c7 -3 16 -2 19 1 4 3 -2 6 -13 5 -11 0 -14 -3 -6 -6z"/>
<path d="M4118 7583 c7 -3 16 -2 19 1 4 3 -2 6 -13 5 -11 0 -14 -3 -6 -6z"/>
<path d="M3844 7558 l-19 -23 23 19 c21 18 27 26 19 26 -2 0 -12 -10 -23 -22z"/>
<path d="M4048 7573 c7 -3 16 -2 19 1 4 3 -2 6 -13 5 -11 0 -14 -3 -6 -6z"/>
<path d="M4261 7559 c-7 -19 -66 -38 -475 -147 -421 -112 -470 -123 -492 -111
-36 19 -59 1 -59 -43 0 -27 -45 -110 -205 -381 -135 -229 -211 -347 -221 -347
-42 0 -52 -67 -12 -85 16 -7 42 -53 91 -165 56 -126 69 -163 67 -199 -2 -40
-24 -75 -201 -332 -154 -223 -204 -288 -220 -289 -12 0 -27 -7 -34 -16 -18
-21 -1 -68 25 -72 16 -2 92 -149 345 -665 276 -562 325 -667 322 -699 -4 -41
18 -61 57 -51 16 4 95 -39 315 -171 235 -140 295 -181 300 -201 7 -27 48 -44
69 -27 7 6 154 13 362 17 317 7 352 6 364 -9 23 -28 61 -20 74 15 10 27 55 57
305 206 210 125 300 173 315 169 36 -9 58 11 56 53 -2 31 51 147 321 699 263
536 328 662 346 666 45 12 41 73 -5 82 -21 5 -65 63 -225 294 -165 240 -199
295 -201 327 -3 50 128 359 155 366 30 8 42 40 24 65 -8 12 -23 22 -32 22 -26
1 -425 680 -426 727 -1 45 -24 63 -59 44 -21 -11 -76 1 -492 112 -410 109
-470 127 -476 146 -12 30 -66 30 -78 0z m-210 -480 c-153 -296 -225 -425 -238
-427 -10 -2 -25 -12 -33 -21 -12 -15 -93 -28 -470 -74 -250 -31 -458 -53 -462
-49 -4 4 86 166 200 359 176 299 211 352 234 357 14 3 29 14 32 24 5 15 90 41
474 144 257 69 471 122 475 118 4 -4 -91 -198 -212 -431z m769 311 c395 -105
457 -124 473 -146 10 -13 26 -24 35 -24 20 0 437 -699 425 -711 -4 -4 -213 17
-463 48 -377 46 -458 59 -470 74 -8 9 -23 19 -33 21 -12 2 -86 136 -237 428
-120 233 -217 428 -214 432 3 4 10 5 17 3 7 -3 217 -59 467 -125z m-292 -315
c207 -401 217 -423 217 -476 -1 -46 -17 -99 -100 -311 -83 -212 -104 -258
-122 -262 -27 -7 -38 -39 -22 -64 10 -16 -4 -73 -92 -360 -57 -188 -107 -338
-110 -334 -4 4 -53 156 -108 339 -84 274 -100 336 -91 353 15 27 4 59 -24 69
-33 13 -224 517 -221 583 3 39 40 119 220 468 120 231 222 419 227 418 5 -2
107 -192 226 -423z m-730 -500 c27 -14 38 -35 98 -188 37 -95 84 -215 104
-267 21 -52 37 -96 35 -98 -2 -2 -98 56 -214 129 -145 90 -211 137 -211 149 0
43 -67 53 -85 13 -5 -13 -14 -25 -20 -27 -5 -2 -114 -45 -242 -94 -206 -81
-234 -90 -257 -79 -20 9 -41 47 -96 171 -63 144 -77 195 -52 196 4 1 196 25
427 54 231 30 434 54 451 55 17 0 45 -6 62 -14z m1469 -35 c509 -62 481 -58
488 -80 3 -10 -23 -82 -63 -174 -54 -124 -75 -160 -96 -171 -25 -13 -41 -8
-268 80 -133 52 -242 96 -242 97 -9 26 -28 44 -50 46 -23 3 -29 -2 -39 -28
-10 -26 -48 -54 -220 -162 -114 -72 -209 -129 -211 -127 -2 2 45 125 103 272
109 275 119 293 173 296 9 1 200 -22 425 -49z m-1686 -282 c27 1 429 -242 436
-263 1 -5 -110 -38 -248 -73 -199 -51 -253 -61 -265 -52 -8 7 -27 10 -44 7
-24 -5 -66 11 -222 88 -106 53 -196 99 -201 104 -4 4 59 34 140 66 81 32 191
75 243 96 56 23 103 36 115 33 11 -4 32 -6 46 -6z m1478 2 c16 8 67 -8 262
-84 235 -92 257 -102 248 -110 -2 -2 -93 -47 -202 -99 -159 -77 -204 -95 -228
-90 -16 3 -35 0 -43 -6 -10 -9 -71 3 -265 51 -138 35 -250 67 -248 72 2 5 97
69 213 141 161 102 213 130 227 123 10 -5 25 -5 36 2z m-1825 -316 c108 -53
196 -101 196 -107 0 -6 9 -20 19 -31 18 -19 20 -48 30 -341 6 -176 13 -374 16
-440 2 -66 7 -189 11 -272 4 -112 3 -153 -5 -153 -7 0 -217 178 -468 396 -396
344 -456 400 -458 426 -2 24 34 82 196 316 189 272 210 297 255 301 7 1 100
-42 208 -95z m2398 78 c3 -4 94 -135 202 -291 198 -288 204 -299 179 -343 -9
-17 -896 -783 -910 -786 -13 -3 -14 11 -9 95 3 54 13 321 22 593 15 460 18
496 35 513 11 10 19 23 19 30 0 7 87 56 193 109 165 84 197 97 227 92 19 -3
38 -9 42 -12z m-1600 -82 c-1 -8 -48 -145 -104 -303 -88 -251 -105 -290 -126
-298 -21 -8 -23 -14 -19 -47 4 -31 -16 -89 -121 -354 -69 -175 -127 -316 -129
-314 -2 1 -12 265 -24 586 -18 527 -19 584 -5 592 9 5 16 15 16 22 0 14 447
135 490 133 16 -1 24 -7 22 -17z m805 -41 c131 -34 240 -65 241 -70 2 -5 11
-16 19 -25 13 -13 14 -44 9 -227 -4 -117 -9 -246 -11 -287 -2 -41 -7 -169 -10
-285 -3 -115 -8 -250 -11 -300 l-6 -89 -129 322 c-103 256 -127 327 -119 342
13 24 3 50 -23 59 -17 6 -43 70 -128 307 -58 164 -104 302 -102 307 7 12 25 9
270 -54z m-661 -314 c77 -248 99 -333 90 -342 -8 -9 -53 -4 -196 23 -101 19
-188 34 -192 34 -5 0 -13 11 -19 24 -10 20 3 65 86 297 121 341 116 328 123
309 3 -8 52 -163 108 -345z m374 345 c0 -6 45 -137 100 -292 71 -198 99 -290
95 -309 -6 -25 -11 -27 -203 -62 -150 -27 -200 -33 -208 -24 -8 9 17 104 95
355 90 294 121 378 121 332z m-1068 -1380 c4 -30 -12 -69 -117 -270 -67 -129
-127 -235 -134 -235 -8 0 -661 1304 -661 1322 0 1 204 -174 454 -390 413 -357
454 -395 458 -427z m2517 754 c-16 -32 -162 -329 -324 -659 -161 -330 -298
-600 -305 -600 -6 0 -67 107 -135 238 -106 204 -122 241 -116 269 5 26 81 96
456 424 248 215 451 391 452 390 1 -1 -11 -29 -28 -62z m-1935 -58 c104 -19
191 -38 194 -41 3 -3 -1 -12 -9 -20 -27 -26 -693 -584 -696 -582 -1 1 58 150
130 330 101 250 136 327 149 327 9 0 20 5 23 10 8 13 -4 15 209 -24z m686 24
c0 -5 8 -10 18 -10 15 0 45 -65 150 -327 73 -179 131 -327 130 -329 -3 -2
-677 561 -702 586 -5 6 -7 12 -4 15 7 7 351 73 386 74 12 1 22 -3 22 -9z m-64
-394 c195 -164 354 -303 354 -310 0 -8 -57 -39 -127 -70 -583 -256 -577 -254
-595 -242 -13 8 -23 8 -36 0 -14 -9 -81 17 -360 140 -189 83 -348 158 -353
167 -7 14 55 71 347 315 299 251 361 299 386 298 24 -1 100 -60 384 -298z
m-777 -499 c257 -114 346 -157 351 -173 6 -16 -28 -77 -163 -291 -148 -235
-175 -272 -200 -277 -24 -5 -75 22 -327 172 -259 154 -299 181 -302 204 -3 19
30 92 120 267 69 132 128 239 131 236 4 -2 13 0 21 6 8 5 17 9 20 8 3 0 160
-68 349 -152z m1169 140 c7 0 68 -109 136 -241 93 -179 123 -248 119 -266 -4
-21 -55 -56 -302 -203 -254 -151 -302 -176 -327 -171 -25 5 -51 41 -200 277
-131 208 -170 277 -164 292 9 23 686 327 710 318 8 -3 21 -6 28 -6z m-590
-617 c100 -159 169 -277 165 -285 -4 -13 -52 -15 -318 -15 -172 0 -326 -3
-343 -6 -23 -5 -32 -2 -41 13 -8 17 17 62 162 291 109 174 177 272 188 272 10
0 78 -98 187 -270z"/>
<path d="M3983 7563 c9 -2 23 -2 30 0 6 3 -1 5 -18 5 -16 0 -22 -2 -12 -5z"/>
<path d="M5235 7500 c38 -38 72 -70 74 -70 3 0 -26 32 -64 70 -38 39 -72 70
-74 70 -3 0 26 -31 64 -70z"/>
<path d="M3893 7553 c9 -2 23 -2 30 0 6 3 -1 5 -18 5 -16 0 -22 -2 -12 -5z"/>
<path d="M3338 7489 c-21 -11 -38 -22 -38 -24 0 -3 18 4 40 15 22 11 40 23 40
25 0 7 0 7 -42 -16z"/>
<path d="M3220 7430 c-9 -6 -10 -10 -3 -10 6 0 15 5 18 10 8 12 4 12 -15 0z"/>
<path d="M5340 7406 c0 -2 8 -10 18 -17 15 -13 16 -12 3 4 -13 16 -21 21 -21
13z"/>
<path d="M2825 7299 c-4 -6 -5 -12 -2 -15 2 -3 7 2 10 11 7 17 1 20 -8 4z"/>
<path d="M5530 7276 c0 -2 7 -7 16 -10 8 -3 12 -2 9 4 -6 10 -25 14 -25 6z"/>
<path d="M2811 7234 c0 -11 3 -14 6 -6 3 7 2 16 -1 19 -3 4 -6 -2 -5 -13z"/>
<path d="M5600 7240 c8 -5 20 -10 25 -10 6 0 3 5 -5 10 -8 5 -19 10 -25 10 -5
0 -3 -5 5 -10z"/>
<path d="M6201 7204 c0 -11 3 -14 6 -6 3 7 2 16 -1 19 -3 4 -6 -2 -5 -13z"/>
<path d="M2371 7184 c0 -11 3 -14 6 -6 3 7 2 16 -1 19 -3 4 -6 -2 -5 -13z"/>
<path d="M2802 7165 c0 -16 2 -22 5 -12 2 9 2 23 0 30 -3 6 -5 -1 -5 -18z"/>
<path d="M5798 7183 c7 -3 16 -2 19 1 4 3 -2 6 -13 5 -11 0 -14 -3 -6 -6z"/>
<path d="M5822 7140 c0 -19 2 -27 5 -17 2 9 2 25 0 35 -3 9 -5 1 -5 -18z"/>
<path d="M6211 7114 c0 -11 3 -14 6 -6 3 7 2 16 -1 19 -3 4 -6 -2 -5 -13z"/>
<path d="M2791 7104 c0 -11 3 -14 6 -6 3 7 2 16 -1 19 -3 4 -6 -2 -5 -13z"/>
<path d="M2361 7094 c0 -11 3 -14 6 -6 3 7 2 16 -1 19 -3 4 -6 -2 -5 -13z"/>
<path d="M5832 7045 c0 -16 2 -22 5 -12 2 9 2 23 0 30 -3 6 -5 -1 -5 -18z"/>
<path d="M2782 7040 c0 -14 2 -19 5 -12 2 6 2 18 0 25 -3 6 -5 1 -5 -13z"/>
<path d="M6223 6975 c0 -22 2 -30 4 -17 2 12 2 30 0 40 -3 9 -5 -1 -4 -23z"/>
<path d="M2772 6980 c0 -14 2 -19 5 -12 2 6 2 18 0 25 -3 6 -5 1 -5 -13z"/>
<path d="M5842 6955 c0 -16 2 -22 5 -12 2 9 2 23 0 30 -3 6 -5 -1 -5 -18z"/>
<path d="M2352 6940 c0 -19 2 -27 5 -17 2 9 2 25 0 35 -3 9 -5 1 -5 -18z"/>
<path d="M2761 6924 c0 -11 3 -14 6 -6 3 7 2 16 -1 19 -3 4 -6 -2 -5 -13z"/>
<path d="M5851 6884 c0 -11 3 -14 6 -6 3 7 2 16 -1 19 -3 4 -6 -2 -5 -13z"/>
<path d="M2752 6860 c0 -14 2 -19 5 -12 2 6 2 18 0 25 -3 6 -5 1 -5 -13z"/>
<path d="M5862 6820 c0 -14 2 -19 5 -12 2 6 2 18 0 25 -3 6 -5 1 -5 -13z"/>
<path d="M5872 6760 c0 -14 2 -19 5 -12 2 6 2 18 0 25 -3 6 -5 1 -5 -13z"/>
<path d="M2731 6754 c0 -11 3 -14 6 -6 3 7 2 16 -1 19 -3 4 -6 -2 -5 -13z"/>
<path d="M2721 6704 c0 -11 3 -14 6 -6 3 7 2 16 -1 19 -3 4 -6 -2 -5 -13z"/>
<path d="M5891 6654 c0 -11 3 -14 6 -6 3 7 2 16 -1 19 -3 4 -6 -2 -5 -13z"/>
<path d="M2353 6600 c0 -25 2 -35 4 -22 2 12 2 32 0 45 -2 12 -4 2 -4 -23z"/>
<path d="M2701 6604 c0 -11 3 -14 6 -6 3 7 2 16 -1 19 -3 4 -6 -2 -5 -13z"/>
<path d="M5901 6604 c0 -11 3 -14 6 -6 3 7 2 16 -1 19 -3 4 -6 -2 -5 -13z"/>
<path d="M6223 6560 c0 -25 2 -35 4 -22 2 12 2 32 0 45 -2 12 -4 2 -4 -23z"/>
<path d="M2691 6554 c0 -11 3 -14 6 -6 3 7 2 16 -1 19 -3 4 -6 -2 -5 -13z"/>
<path d="M5911 6554 c0 -11 3 -14 6 -6 3 7 2 16 -1 19 -3 4 -6 -2 -5 -13z"/>
<path d="M5921 6514 c0 -11 3 -14 6 -6 3 7 2 16 -1 19 -3 4 -6 -2 -5 -13z"/>
<path d="M2681 6504 c0 -11 3 -14 6 -6 3 7 2 16 -1 19 -3 4 -6 -2 -5 -13z"/>
<path d="M2671 6464 c0 -11 3 -14 6 -6 3 7 2 16 -1 19 -3 4 -6 -2 -5 -13z"/>
<path d="M2661 6424 c0 -11 3 -14 6 -6 3 7 2 16 -1 19 -3 4 -6 -2 -5 -13z"/>
<path d="M5941 6424 c0 -11 3 -14 6 -6 3 7 2 16 -1 19 -3 4 -6 -2 -5 -13z"/>
<path d="M2363 6395 c0 -22 2 -30 4 -17 2 12 2 30 0 40 -3 9 -5 -1 -4 -23z"/>
<path d="M6213 6365 c0 -22 2 -30 4 -17 2 12 2 30 0 40 -3 9 -5 -1 -4 -23z"/>
<path d="M5961 6344 c0 -11 3 -14 6 -6 3 7 2 16 -1 19 -3 4 -6 -2 -5 -13z"/>
<path d="M2372 6295 c0 -16 2 -22 5 -12 2 9 2 23 0 30 -3 6 -5 -1 -5 -18z"/>
<path d="M2631 6294 c0 -11 3 -14 6 -6 3 7 2 16 -1 19 -3 4 -6 -2 -5 -13z"/>
<path d="M6202 6275 c0 -16 2 -22 5 -12 2 9 2 23 0 30 -3 6 -5 -1 -5 -18z"/>
<path d="M2382 6205 c0 -16 2 -22 5 -12 2 9 2 23 0 30 -3 6 -5 -1 -5 -18z"/>
<path d="M6192 6185 c0 -16 2 -22 5 -12 2 9 2 23 0 30 -3 6 -5 -1 -5 -18z"/>
<path d="M2391 6124 c0 -11 3 -14 6 -6 3 7 2 16 -1 19 -3 4 -6 -2 -5 -13z"/>
<path d="M6182 6120 c0 -14 2 -19 5 -12 2 6 2 18 0 25 -3 6 -5 1 -5 -13z"/>
<path d="M2402 6060 c0 -14 2 -19 5 -12 2 6 2 18 0 25 -3 6 -5 1 -5 -13z"/>
<path d="M2411 6004 c0 -11 3 -14 6 -6 3 7 2 16 -1 19 -3 4 -6 -2 -5 -13z"/>
<path d="M2536 5995 c-9 -26 -7 -32 5 -12 6 10 9 21 6 23 -2 3 -7 -2 -11 -11z"/>
<path d="M6161 5984 c0 -11 3 -14 6 -6 3 7 2 16 -1 19 -3 4 -6 -2 -5 -13z"/>
<path d="M2421 5944 c0 -11 3 -14 6 -6 3 7 2 16 -1 19 -3 4 -6 -2 -5 -13z"/>
<path d="M6151 5934 c0 -11 3 -14 6 -6 3 7 2 16 -1 19 -3 4 -6 -2 -5 -13z"/>
<path d="M6142 5880 c0 -14 2 -19 5 -12 2 6 2 18 0 25 -3 6 -5 1 -5 -13z"/>
<path d="M2486 5873 c-6 -14 -5 -15 5 -6 7 7 10 15 7 18 -3 3 -9 -2 -12 -12z"/>
<path d="M6100 5885 c0 -5 5 -17 10 -25 5 -8 10 -10 10 -5 0 6 -5 17 -10 25
-5 8 -10 11 -10 5z"/>
<path d="M6126 5841 c-4 -7 -5 -15 -2 -18 9 -9 19 4 14 18 -4 11 -6 11 -12 0z"/>
<path d="M2455 5819 c-4 -6 -5 -12 -2 -15 2 -3 7 2 10 11 7 17 1 20 -8 4z"/>
<path d="M1530 4743 c-21 -27 -21 -31 -17 -443 3 -338 6 -425 19 -467 66 -219
222 -375 441 -441 42 -12 130 -16 467 -19 413 -4 416 -4 443 17 31 24 37 73
13 106 -14 18 -33 19 -443 24 -415 5 -430 6 -484 28 -125 50 -231 156 -281
280 -22 56 -23 68 -28 485 -5 410 -6 429 -24 443 -33 24 -82 18 -106 -13z"/>
<path d="M6974 4762 c-31 -21 -34 -53 -34 -445 0 -426 -2 -442 -57 -551 -32
-62 -122 -153 -189 -188 -102 -55 -133 -58 -564 -58 -385 0 -397 -1 -418 -20
-32 -30 -30 -82 4 -109 26 -20 37 -21 403 -21 384 0 461 6 559 40 179 63 325
218 388 410 16 48 18 105 22 464 2 225 1 419 -2 432 -3 12 -13 30 -22 38 -16
16 -71 21 -90 8z"/>
<path d="M5722 2650 c0 -19 2 -27 5 -17 2 9 2 25 0 35 -3 9 -5 1 -5 -18z"/>
<path d="M2886 2545 c14 -171 89 -480 189 -780 35 -104 70 -207 79 -227 15
-35 17 -37 46 -27 17 6 27 16 23 22 -3 6 -1 7 5 3 11 -7 48 8 440 178 122 53
227 94 231 91 5 -3 54 -87 110 -187 l100 -183 -90 -503 c-50 -277 -88 -507
-85 -510 8 -7 733 -8 741 0 3 3 -35 232 -85 509 l-91 504 92 190 c51 105 93
191 94 193 1 1 155 -63 341 -144 186 -81 354 -153 371 -160 33 -14 33 -14 49
23 35 81 154 455 188 588 38 149 49 200 71 335 21 122 17 163 -5 50 -26 -140
-65 -296 -116 -465 -44 -145 -138 -412 -148 -423 -5 -4 -240 96 -909 387
l-227 99 -138 -60 c-75 -33 -179 -78 -229 -100 l-93 -40 26 -44 c14 -24 22
-44 16 -44 -5 0 -14 10 -21 23 -11 21 -11 20 -7 -8 3 -16 3 -24 0 -17 -3 6
-10 10 -15 6 -5 -3 -5 6 1 20 9 25 5 56 -9 56 -3 0 -152 -63 -330 -140 -178
-77 -326 -140 -330 -140 -9 0 -69 161 -127 340 -47 143 -124 441 -149 575
l-15 80 6 -70z m1845 -679 c-11 -19 -17 -37 -13 -42 4 -4 2 -4 -5 0 -9 5 -8
15 4 41 9 19 20 35 25 35 4 0 -1 -15 -11 -34z m-925 -1 c-1 -8 -5 -17 -8 -21
-5 -4 -4 16 1 34 3 9 9 -1 7 -13z m959 -15 c-3 -6 4 -14 16 -18 l23 -9 -22 -5
c-12 -4 -20 -2 -17 2 3 5 1 11 -4 15 -5 3 -14 -3 -20 -12 -6 -10 -11 -14 -11
-9 0 5 7 18 17 28 17 19 28 24 18 8z m71 -38 c-17 -16 -18 -16 -5 5 7 12 15
20 18 17 3 -2 -3 -12 -13 -22z m64 8 c0 -5 9 -12 21 -15 11 -4 18 -9 15 -12
-3 -3 -18 3 -33 13 -15 10 -32 17 -36 16 -5 -1 -6 2 -2 7 6 11 35 3 35 -9z
m-1205 -10 c3 -6 -1 -7 -9 -4 -18 7 -21 14 -7 14 6 0 13 -4 16 -10z m49 -20
c-6 -6 -15 -5 -24 1 -13 9 -12 10 3 5 9 -3 17 0 17 6 0 6 3 8 7 5 4 -4 2 -12
-3 -17z m1061 9 c11 -16 1 -19 -13 -3 -7 8 -8 14 -3 14 5 0 13 -5 16 -11z
m-1186 -13 c-2 -2 -15 -9 -29 -15 -24 -11 -24 -11 -6 3 16 13 49 24 35 12z
m141 -11 c-7 -8 -17 -15 -23 -15 -6 0 -2 7 9 15 25 19 30 19 14 0z m1118 -10
c-3 -3 -9 2 -12 12 -6 14 -5 15 5 6 7 -7 10 -15 7 -18z m118 13 c4 -6 3 -8 -3
-5 -6 4 -13 0 -16 -7 -3 -8 -2 -17 4 -20 5 -2 4 -3 -3 -2 -7 2 -19 -4 -27 -13
-10 -12 -10 -10 1 9 33 58 32 57 44 38z m-1320 -18 c0 -12 -4 -16 -9 -11 -5 5
-6 14 -3 20 10 15 12 14 12 -9z m1278 11 c-9 -9 -34 -9 -34 -1 0 5 9 8 20 7
10 -1 17 -3 14 -6z m-1424 -26 c0 -2 -10 -9 -22 -15 -22 -11 -22 -10 -4 4 21
17 26 19 26 11z m1395 -5 c3 -6 -1 -7 -9 -4 -18 7 -21 14 -7 14 6 0 13 -4 16
-10z m-1295 -4 c0 -2 -7 -7 -16 -10 -8 -3 -12 -2 -9 4 6 10 25 14 25 6z m1374
-8 c-5 -8 -2 -9 9 -5 24 9 21 0 -4 -14 -15 -8 -19 -8 -15 0 4 6 0 11 -11 12
-16 0 -16 1 2 9 27 12 27 12 19 -2z m-1554 -25 c0 -1 -8 -7 -18 -12 -13 -7
-19 -6 -19 2 0 7 9 13 19 13 10 0 18 -1 18 -3z m2 -25 c-9 -9 -9 -15 1 -27 11
-14 10 -14 -6 -2 -13 10 -15 17 -6 27 6 8 14 14 17 14 3 0 1 -5 -6 -12z m1735
-7 c7 7 13 9 13 7 0 -3 -10 -13 -22 -24 -13 -10 -20 -15 -16 -10 4 5 2 16 -4
25 -10 13 -10 14 2 4 10 -9 17 -10 27 -2z m37 -27 c3 -8 2 -12 -4 -9 -6 3 -10
10 -10 16 0 14 7 11 14 -7z m-1904 -14 c-8 -5 -19 -10 -25 -10 -5 0 -3 5 5 10
8 5 20 10 25 10 6 0 3 -5 -5 -10z m1957 4 c-3 -3 -12 -4 -19 -1 -8 3 -5 6 6 6
11 1 17 -2 13 -5z m-1877 -8 c0 -3 -4 -8 -10 -11 -5 -3 -10 -1 -10 4 0 6 5 11
10 11 6 0 10 -2 10 -4z m1917 -3 c-12 -3 -16 -10 -12 -21 5 -13 3 -14 -6 -5
-14 14 -3 33 19 32 15 -1 14 -2 -1 -6z m-2111 -18 c-1 -8 -5 -17 -8 -21 -5 -4
-4 16 1 34 3 9 9 -1 7 -13z m2198 7 c3 -5 -1 -9 -9 -9 -8 0 -12 4 -9 9 3 4 7
8 9 8 2 0 6 -4 9 -8z m-70 -23 c-3 -6 5 -9 21 -7 20 2 28 -2 30 -15 2 -9 -1
-15 -6 -11 -5 3 -7 10 -4 15 4 5 -7 6 -25 3 -26 -6 -30 -4 -30 15 0 13 4 19
10 16 6 -4 8 -11 4 -16z m113 1 c-4 -25 -13 -34 -27 -25 -8 5 -6 13 7 25 23
24 23 24 20 0z m-2137 -4 c0 -2 -8 -10 -17 -17 -16 -13 -17 -12 -4 4 13 16 21
21 21 13z m-116 -27 c-4 -8 1 -9 17 -5 20 6 21 5 6 -4 -19 -12 -41 -4 -32 11
4 5 8 9 11 9 3 0 2 -5 -2 -11z m2220 -25 c3 -8 2 -12 -4 -9 -6 3 -10 10 -10
16 0 14 7 11 14 -7z"/>
</g>
</svg>
